Coordinates
version=1
nRows=6
nColumns=107
inDegrees=yes

Units are S.I. units (second, meters, Newtons, ...)
If the header above contains a line with 'inDegrees', this indicates whether rotational values are in degrees (yes) or radians (no).

endheader
time	sternoclavicular_r2	sternoclavicular_r3	unrotscap_r3	unrotscap_r2	acromioclavicular_r2	acromioclavicular_r3	acromioclavicular_r1	unrothum_r1	unrothum_r3	unrothum_r2	elv_angle	shoulder_elv	shoulder1_r2	shoulder_rot	elbow_flexion	pro_sup	deviation	flexion	proximal_distal_r1	proximal_distal_r3	cmc_flexion	cmc_abduction	mp_flexion	ip_flexion	mcp2_flexion	mcp2_abduction	pm2_flexion	md2_flexion	mcp3_flexion	mcp3_abduction	pm3_flexion	md3_flexion	mcp4_flexion	mcp4_abduction	pm4_flexion	md4_flexion	mcp5_flexion	mcp5_abduction	pm5_flexion	md5_flexion	bicpt_tx	bicpt_ty	bicpt_tz	bicpt2_tx	bicpt2_ty	bicpt2_tz	ptpt_tx	ptpt_ty	ptpt_tz	FCUpt_tx	FCUpt_ty	FCUpt_tz	EDCpt_tx	EDCpt_ty	EDCpt_tz	APLpt_tx	APLpt_ty	APLpt_tz	FPLpt_tx	FPLpt_ty	FPLpt_tz	FPLpt2_tx	FPLpt2_ty	FPLpt2_tz	PEC1pt2_tx	PEC1pt2_ty	PEC1pt2_tz	PEC1pt3_tx	PEC1pt3_ty	PEC1pt3_tz	PEC2pt2_tx	PEC2pt2_ty	PEC2pt2_tz	PEC2pt3_tx	PEC2pt3_ty	PEC2pt3_tz	PEC3pt2_tx	PEC3pt2_ty	PEC3pt2_tz	PEC3pt3_tx	PEC3pt3_ty	PEC3pt3_tz	DELT2pt2a_tx	DELT2pt2a_ty	DELT2pt2a_tz	DELT2pt2_tx	DELT2pt2_ty	DELT2pt2_tz	LAT1pt2_tx	LAT1pt2_ty	LAT1pt2_tz	LAT1pt3_tx	LAT1pt3_ty	LAT1pt3_tz	LAT2pt2_tx	LAT2pt2_ty	LAT2pt2_tz	LAT2pt3_tx	LAT2pt3_ty	LAT2pt3_tz	LAT3pt2_tx	LAT3pt2_ty	LAT3pt2_tz	LAT3pt3_tx	LAT3pt3_ty	LAT3pt3_tz
      0.00000000	     -0.32065275	      0.13581337	     -0.13581337	      0.32065275	     -0.06492566	      0.52470635	      0.23585189	     -0.23585189	     -0.52470635	      0.06492566	     99.43322726	     75.91738993	     -1.73543720	    -23.31962129	     27.99709990	     19.89951749	     -0.00582591	     -1.02899317	     -0.00793432	     -0.51449659	     -4.55217162	      1.17867198	    -31.06430550	    -27.57091652	      9.99226639	     12.47624973	     33.04780997	     19.19196279	     57.11084027	      9.17842012	     86.85349610	     70.54853083	     62.47036508	     -8.58585671	     94.57342842	     33.91147923	     16.79814508	    -13.13899732	    -13.52912065	      4.94450532	      0.00082606	     -0.03080890	     -0.00481687	      0.01607470	     -0.01780555	     -0.00933254	      0.00607965	     -0.06585075	     -0.00165301	      0.00581890	     -0.18385584	     -0.00009160	     -0.00238794	      0.00062493	      0.00018123	      0.00016609	      0.00006644	      0.00033218	      0.00021259	      0.00063778	      0.00035875	     -0.00031015	      0.00012532	      0.00015038	      0.00248841	      0.00873051	      0.00607340	     -0.00814004	      0.01965419	     -0.01864195	      0.00248841	      0.00873051	      0.00607340	      0.00054829	      0.01822019	     -0.00957403	      0.00393848	      0.00485492	      0.01594447	      0.00000000	      0.00770747	      0.00000000	     -0.00712781	     -0.03293974	     -0.00635476	      0.01561816	     -0.00053602	     -0.00453538	     -0.00088570	      0.01484608	     -0.00607340	      0.00244623	      0.02142559	     -0.01771407	     -0.00594687	      0.01286379	     -0.00544075	     -0.01239985	      0.02716158	     -0.03040916	     -0.02328135	      0.01438214	     -0.00729651	     -0.01543655	      0.03137921	     -0.03800090
      0.03333333	     -0.32119699	      0.13604389	     -0.13604389	      0.32119699	     -0.06503586	      0.52559692	      0.23625220	     -0.23625220	     -0.52559692	      0.06503586	     99.27303156	     76.04624335	     -1.73264126	    -22.51304111	     28.00218227	     18.67144747	     -0.00601328	     -1.03418612	     -0.00819013	     -0.51709306	     -4.73702027	      1.22126414	    -30.85687542	    -27.36064303	     11.13095281	     12.46927322	     33.37324495	     21.47495550	     56.67169006	      9.08817795	     86.84976039	     70.65551168	     62.00442880	     -8.75614682	     95.37179955	     32.43180486	     16.49674104	    -13.16970713	    -13.72399668	      4.94024348	      0.00082623	     -0.03080948	     -0.00481696	      0.01601420	     -0.01780693	     -0.00942797	      0.00617039	     -0.06579208	     -0.00155409	      0.00570311	     -0.18387416	     -0.00006372	     -0.00224057	      0.00058282	      0.00017626	      0.00016243	      0.00006497	      0.00032486	      0.00020791	      0.00062373	      0.00035085	     -0.00033157	      0.00013089	      0.00015707	      0.00249263	      0.00874533	      0.00608370	     -0.00815385	      0.01968754	     -0.01867359	      0.00249263	      0.00874533	      0.00608370	      0.00054922	      0.01825111	     -0.00959028	      0.00394337	      0.00486316	      0.01595645	      0.00000000	      0.00773384	      0.00000000	     -0.00713990	     -0.03299565	     -0.00637665	      0.01518419	     -0.00051035	     -0.00421947	     -0.00088721	      0.01487128	     -0.00608370	      0.00245038	      0.02146196	     -0.01774414	     -0.00595696	      0.01288562	     -0.00544999	     -0.01242090	      0.02720768	     -0.03046077	     -0.02332087	      0.01440655	     -0.00730890	     -0.01546275	      0.03143247	     -0.03806540
      0.06666667	     -0.32110580	      0.13600526	     -0.13600526	      0.32110580	     -0.06501739	      0.52544769	      0.23618512	     -0.23618512	     -0.52544769	      0.06501739	     99.27351190	     76.02465184	     -1.73264964	    -22.50601147	     27.99779309	     18.67443810	     -0.00604234	     -1.03415796	     -0.00823018	     -0.51707898	     -4.73670016	      1.22097091	    -30.85673020	    -27.36060942	     11.13947975	     12.46950523	     33.37542103	     21.47620037	     56.67102098	      9.08839406	     86.84984094	     70.65556531	     62.00405430	     -8.75612193	     95.37162214	     32.43168602	     16.49666808	    -13.16954697	    -13.72395624	      4.94025106	      0.00082608	     -0.03080898	     -0.00481688	      0.01601436	     -0.01780574	     -0.00942774	      0.00617017	     -0.06579222	     -0.00155433	      0.00570339	     -0.18387412	     -0.00006379	     -0.00224093	      0.00058292	      0.00017628	      0.00016245	      0.00006498	      0.00032490	      0.00020793	      0.00062380	      0.00035089	     -0.00033158	      0.00013088	      0.00015706	      0.00249192	      0.00874284	      0.00608198	     -0.00815154	      0.01968195	     -0.01866829	      0.00249192	      0.00874284	      0.00608198	      0.00054907	      0.01824593	     -0.00958756	      0.00394255	      0.00486178	      0.01595445	      0.00000000	      0.00772942	      0.00000000	     -0.00713788	     -0.03298628	     -0.00637298	      0.01518036	     -0.00051012	     -0.00421678	     -0.00088696	      0.01486706	     -0.00608198	      0.00244969	      0.02145586	     -0.01773910	     -0.00595527	      0.01288197	     -0.00544844	     -0.01241737	      0.02719995	     -0.03045212	     -0.02331425	      0.01440246	     -0.00730682	     -0.01545836	      0.03142355	     -0.03805459
      0.10000000	     -0.31957066	      0.13535505	     -0.13535505	      0.31957066	     -0.06470656	      0.52293564	      0.23505597	     -0.23505597	     -0.52293564	      0.06470656	     99.63063214	     75.66119483	     -1.73888257	    -24.49936687	     28.12012188	     20.60452670	     -0.01031661	     -1.02001811	     -0.01408740	     -0.51000906	     -4.81903725	      1.29259059	    -30.56277745	    -27.41816893	     12.66130268	     12.55804162	     34.54612213	     22.35018387	     56.34892103	      9.09128901	     86.86583129	     71.02789113	     61.78510296	     -8.92945622	     95.46333482	     32.15147584	     16.21700990	    -13.17991697	    -13.38198223	      4.95854809	      0.00083013	     -0.03082300	     -0.00481914	      0.01610786	     -0.01783897	     -0.00927680	      0.00602756	     -0.06588444	     -0.00170981	      0.00588558	     -0.18384513	     -0.00010709	     -0.00247254	      0.00064931	      0.00018372	      0.00017231	      0.00006892	      0.00034461	      0.00022055	      0.00066166	      0.00037218	     -0.00034133	      0.00013337	      0.00016005	      0.00248001	      0.00870104	      0.00605290	     -0.00811257	      0.01958786	     -0.01857904	      0.00248001	      0.00870104	      0.00605290	      0.00054644	      0.01815870	     -0.00954173	      0.00392875	      0.00483854	      0.01592053	      0.00000000	      0.00765518	      0.00000000	     -0.00710375	     -0.03282858	     -0.00631134	      0.01623725	     -0.00057398	     -0.00501447	     -0.00088271	      0.01479598	     -0.00605290	      0.00243797	      0.02135329	     -0.01765429	     -0.00592680	      0.01282038	     -0.00542239	     -0.01235801	      0.02706992	     -0.03030654	     -0.02320279	      0.01433361	     -0.00727189	     -0.01538446	      0.03127332	     -0.03787266
      0.13333333	     -0.31947490	      0.13531449	     -0.13531449	      0.31947490	     -0.06468717	      0.52277895	      0.23498554	     -0.23498554	     -0.52277895	      0.06468717	     99.63672795	     75.63852285	     -1.73898896	    -24.48981358	     28.11843713	     20.60810485	     -0.01035182	     -1.01999139	     -0.01413659	     -0.50999569	     -4.81903919	      1.29268570	    -30.56288564	    -27.41820357	     12.66687659	     12.55828929	     34.54725900	     22.35092029	     56.34904072	      9.09128177	     86.86576605	     71.02781768	     61.78511562	     -8.92949234	     95.46323290	     32.15137871	     16.21722352	    -13.17979129	    -13.38186249	      4.95852856	      0.00083007	     -0.03082280	     -0.00481911	      0.01610803	     -0.01783851	     -0.00927652	      0.00602729	     -0.06588461	     -0.00171009	      0.00588592	     -0.18384507	     -0.00010716	     -0.00247297	      0.00064943	      0.00018373	      0.00017232	      0.00006893	      0.00034465	      0.00022057	      0.00066172	      0.00037222	     -0.00034140	      0.00013338	      0.00016005	      0.00247926	      0.00869844	      0.00605109	     -0.00811014	      0.01958199	     -0.01857348	      0.00247926	      0.00869844	      0.00605109	      0.00054628	      0.01815326	     -0.00953887	      0.00392788	      0.00483709	      0.01591840	      0.00000000	      0.00765057	      0.00000000	     -0.00710162	     -0.03281874	     -0.00630751	      0.01623230	     -0.00057367	     -0.00501052	     -0.00088245	      0.01479155	     -0.00605109	      0.00243724	      0.02134689	     -0.01764900	     -0.00592502	      0.01281654	     -0.00542077	     -0.01235430	      0.02706181	     -0.03029746	     -0.02319583	      0.01432931	     -0.00726971	     -0.01537985	      0.03126395	     -0.03786131
      0.16666667	     -0.32249138	      0.13659213	     -0.13659213	      0.32249138	     -0.06529794	      0.52771502	      0.23720427	     -0.23720427	     -0.52771502	      0.06529794	     98.92994103	     76.35270039	     -1.72665320	    -20.81263878	     28.01959835	     17.28326742	     -0.00223254	     -1.02808411	     -0.00303353	     -0.51404205	     -4.74255229	      1.59769888	    -30.79679178	    -27.46097478	     13.73774143	     12.51675052	     33.83013380	     23.75763872	     56.19042703	      8.98650265	     86.82540143	     70.76376325	     61.82709417	     -9.07138824	     95.51124941	     31.52266687	     16.32182837	    -13.21156572	    -13.71564345	      4.94098008	      0.00082680	     -0.03081147	     -0.00481728	      0.01594176	     -0.01781166	     -0.00953336	      0.00627296	     -0.06572575	     -0.00144226	      0.00557277	     -0.18389437	     -0.00003087	     -0.00207399	      0.00053578	      0.00016968	      0.00016673	      0.00006669	      0.00033346	      0.00021342	      0.00064025	      0.00036014	     -0.00033218	      0.00013106	      0.00015727	      0.00250267	      0.00878057	      0.00610822	     -0.00818671	      0.01976688	     -0.01874885	      0.00250267	      0.00878057	      0.00610822	      0.00055144	      0.01832466	     -0.00962893	      0.00395496	      0.00488276	      0.01598479	      0.00000000	      0.00779674	      0.00000000	     -0.00716868	     -0.03312862	     -0.00642886	      0.01424102	     -0.00045702	     -0.00358519	     -0.00089078	      0.01493121	     -0.00610822	      0.00246026	      0.02154845	     -0.01781565	     -0.00598097	      0.01293755	     -0.00547195	     -0.01247095	      0.02731732	     -0.03058352	     -0.02341485	      0.01446461	     -0.00733835	     -0.01552506	      0.03155914	     -0.03821880
